<?xml version="1.0" standalone="no"?>
<!DOCTYPE svg PUBLIC "-//W3C//DTD SVG 20010904//EN"
 "http://www.w3.org/TR/2001/REC-SVG-20010904/DTD/svg10.dtd">
<svg version="1.0" xmlns="http://www.w3.org/2000/svg"
 width="224.000000pt" height="224.000000pt" viewBox="0 0 224.000000 224.000000"
 preserveAspectRatio="xMidYMid meet">
<metadata>
Created by potrace 1.15, written by Peter Selinger 2001-2017
</metadata>
<g transform="translate(0.000000,224.000000) scale(0.100000,-0.100000)"
fill="#000000" stroke="none">
<path d="M1098 1793 c3 -226 8 -353 15 -361 22 -28 44 -32 66 -14 25 20 24 -4
22 405 l-1 317 -53 0 -52 0 3 -347z"/>
<path d="M927 2053 c-21 -59 -23 -69 -10 -78 13 -10 6 -39 -51 -205 -70 -203
-70 -209 -19 -210 25 0 20 -13 88 235 20 72 38 138 41 148 4 13 16 17 55 17
l49 0 0 49 c0 27 -3 63 -6 80 -6 30 -8 31 -64 31 l-58 0 -25 -67z"/>
<path d="M1220 1783 c0 -322 1 -335 18 -320 26 24 103 56 159 66 99 19 219
-22 312 -105 l51 -46 0 45 c0 58 -24 88 -103 127 -79 38 -160 53 -263 48 l-81
-4 -6 185 c-4 102 -7 221 -7 264 l0 77 -40 0 -40 0 0 -337z"/>
<path d="M1322 1869 l3 -252 78 -1 78 -1 -5 45 c-3 25 -8 104 -11 175 -3 72
-8 158 -11 192 l-6 61 -47 12 c-25 6 -54 13 -64 16 -16 5 -17 -10 -15 -247z"/>
<path d="M732 2038 c-43 -21 -76 -47 -104 -82 -47 -59 -104 -173 -114 -230
l-7 -39 38 7 c29 6 36 4 32 -6 -3 -7 -24 -71 -48 -142 -53 -159 -64 -152 -14
9 20 64 35 118 33 120 -12 13 -48 -10 -52 -34 -15 -75 -26 -196 -21 -222 6
-25 18 -4 111 182 57 115 104 211 104 214 0 2 -19 -2 -41 -10 l-41 -15 17 28
c18 27 150 216 168 240 13 17 11 16 -61 -20z"/>
<path d="M1474 2033 c3 -21 8 -92 11 -158 3 -66 8 -153 11 -192 6 -70 8 -73
31 -73 25 0 25 1 21 65 -4 71 5 68 17 -5 9 -58 19 -76 45 -83 11 -3 20 -4 20
-3 0 2 -11 54 -25 116 -25 112 -25 130 -1 130 25 0 56 45 56 81 0 40 -44 89
-121 133 -63 36 -72 34 -65 -11z"/>
<path d="M639 1673 l-146 -298 76 76 c72 71 148 119 189 119 15 0 29 34 77
190 32 104 57 192 54 194 -2 2 -26 7 -54 10 l-50 7 -146 -298z"/>
<path d="M996 1923 c-12 -40 -96 -364 -96 -371 0 -5 12 -14 27 -21 31 -14 38
-7 47 51 5 30 10 39 24 36 9 -2 16 -8 16 -14 -17 -111 -18 -109 20 -126 l35
-17 5 32 c9 54 12 437 4 437 -8 0 -12 -15 -28 -104 -11 -67 -15 -75 -32 -58
-9 9 -8 31 3 92 15 76 15 80 -2 80 -10 0 -20 -8 -23 -17z"/>
<path d="M1677 1857 c-8 -13 -30 -30 -47 -37 -25 -10 -30 -17 -26 -34 3 -12
14 -61 23 -110 17 -88 18 -89 68 -127 l50 -38 3 96 c3 93 -23 242 -47 266 -4
4 -15 -3 -24 -16z"/>
<path d="M733 1521 c-128 -44 -247 -159 -325 -316 -100 -198 -258 -585 -258
-631 0 -8 15 3 33 23 24 27 58 100 117 248 45 116 93 231 106 257 67 134 158
236 257 289 58 32 68 34 157 34 82 0 104 -4 160 -29 36 -15 71 -30 78 -33 8
-4 12 7 12 36 l0 42 -77 35 c-70 32 -171 65 -198 64 -5 -1 -33 -9 -62 -19z"/>
<path d="M1380 1504 c-8 -3 -45 -20 -82 -37 -67 -29 -68 -31 -68 -68 0 -22 3
-39 6 -39 3 0 19 9 34 20 45 32 107 50 174 50 122 0 250 -92 349 -252 53 -85
91 -174 166 -393 32 -93 66 -170 88 -203 20 -28 38 -50 41 -48 14 14 -175 508
-269 703 -79 166 -210 265 -354 270 -38 1 -77 0 -85 -3z"/>
<path d="M1392 1389 c-38 -7 -146 -58 -139 -65 1 -2 27 4 56 13 77 22 176 15
218 -17 67 -49 119 -154 87 -177 -41 -30 -181 -38 -329 -18 l-40 5 34 -16 c86
-39 183 -39 320 2 l53 15 -7 57 c-9 71 -45 143 -87 175 -38 28 -104 39 -166
26z"/>
<path d="M756 1380 c-42 -13 -85 -58 -97 -102 -11 -44 2 -111 29 -142 16 -18
16 -18 -4 -8 -39 21 -56 124 -29 176 9 16 14 31 12 32 -5 5 -93 -80 -111 -108
-13 -19 -13 -34 -4 -96 10 -68 12 -73 44 -88 33 -16 71 -53 106 -104 l17 -25
-6 32 c-5 31 -5 32 53 49 39 11 97 18 172 18 l112 1 11 32 c11 35 4 77 -12 67
-5 -3 -37 -9 -71 -14 -74 -11 -154 2 -220 36 -38 19 -48 29 -48 49 0 87 90
165 192 165 41 0 136 -23 114 -28 -16 -3 -18 -10 -12 -55 3 -29 6 -73 6 -99 0
-27 5 -48 10 -48 6 0 10 10 10 21 0 17 3 19 13 10 22 -18 27 -1 11 32 -13 25
-14 36 -4 74 14 47 7 71 -10 32 -9 -22 -10 -21 -7 11 2 33 -1 36 -52 63 -45
22 -67 27 -125 26 -39 0 -84 -5 -100 -9z"/>
<path d="M1608 1321 c34 -47 55 -113 50 -162 -3 -33 -6 -35 -73 -57 -111 -37
-231 -40 -318 -7 -15 6 -17 1 -17 -44 l0 -50 33 7 c36 8 65 7 217 -5 60 -4
104 -12 104 -18 -1 -5 -5 -21 -9 -34 -6 -19 4 -12 46 29 47 47 55 62 75 136
l22 83 -20 40 c-19 39 -67 84 -116 110 -22 11 -21 10 6 -28z"/>
<path d="M1414 1254 c11 -132 11 -131 54 -126 20 3 41 10 45 16 15 22 -15 141
-47 183 0 1 -14 5 -30 9 l-29 7 7 -89z"/>
<path d="M456 1078 c-53 -109 -99 -232 -147 -388 -17 -56 -34 -87 -66 -122
-31 -33 -43 -56 -43 -77 0 -16 4 -32 8 -35 5 -3 87 -10 183 -15 96 -6 204 -13
242 -17 l67 -5 0 28 c0 15 -9 69 -20 118 -19 85 -28 101 -68 124 -11 6 -10 16
7 48 l20 41 -25 64 c-15 34 -41 80 -60 101 -39 43 -38 38 -20 82 11 25 12 43
5 67 -5 18 -9 45 -9 60 0 56 -21 35 -74 -74z"/>
<path d="M1730 1099 c-20 -66 -20 -73 -6 -104 18 -38 13 -59 -21 -96 -16 -17
-26 -43 -30 -78 -5 -45 -3 -54 17 -73 18 -17 21 -27 16 -57 -16 -91 -17 -112
-6 -165 6 -30 19 -65 29 -77 17 -21 19 -21 142 -9 68 7 132 17 142 22 26 13
21 61 -9 92 -15 14 -30 26 -34 26 -4 0 -20 44 -35 98 -60 210 -162 492 -178
492 -3 0 -15 -32 -27 -71z"/>
<path d="M1111 1142 c-18 -13 -23 -30 -26 -79 l-3 -62 25 10 c35 13 70 11 103
-6 l28 -14 -3 71 c-2 63 -5 73 -26 84 -34 19 -73 17 -98 -4z"/>
<path d="M550 1021 c-16 -32 -13 -39 44 -99 60 -64 136 -169 136 -188 0 -10
-11 -9 -44 6 l-44 19 -7 -26 c-7 -31 -13 -24 73 -78 69 -42 71 -43 88 -24 9
10 23 19 31 19 19 0 17 6 -24 79 -76 138 -181 278 -224 302 -14 7 -21 5 -29
-10z"/>
<path d="M1648 962 c-47 -52 -91 -131 -133 -241 -20 -51 -35 -94 -33 -95 2 0
17 -8 33 -17 29 -15 31 -14 80 24 27 22 60 43 72 48 27 10 31 47 7 56 -9 3
-31 -2 -51 -11 -34 -16 -34 -16 -27 6 17 56 63 147 91 178 23 27 29 40 22 56
-13 36 -25 35 -61 -4z"/>
<path d="M1451 958 c-5 -13 -16 -42 -26 -65 -13 -32 -14 -46 -5 -62 15 -30 24
-26 39 15 8 22 17 32 22 27 6 -6 3 -24 -6 -46 -14 -34 -14 -39 1 -62 9 -14 18
-24 20 -22 6 5 84 219 84 228 0 20 -38 7 -48 -16 -6 -14 -17 -25 -23 -25 -7 0
-9 10 -7 25 4 21 1 25 -19 25 -15 0 -27 -8 -32 -22z"/>
<path d="M736 961 c-3 -5 15 -59 41 -120 l47 -110 28 42 c15 23 28 54 28 70 0
27 -42 104 -64 119 -15 11 -74 10 -80 -1z"/>
<path d="M1260 908 c0 -20 182 -289 193 -285 6 2 16 20 23 40 13 36 12 38 -32
96 -78 104 -184 190 -184 149z"/>
<path d="M999 890 c-43 -22 -113 -99 -140 -152 -33 -64 11 -126 49 -70 33 48
142 229 142 236 0 10 -12 7 -51 -14z"/>
<path d="M1620 632 l-55 -37 2 -110 c1 -61 5 -134 8 -162 l6 -53 25 16 c19 13
24 25 24 61 0 45 0 45 23 30 20 -13 24 -13 40 9 22 30 22 37 -6 71 -21 26 -22
35 -17 121 3 50 5 92 5 92 0 0 -25 -17 -55 -38z"/>
<path d="M680 646 c0 -2 7 -21 16 -42 10 -24 20 -84 24 -154 7 -120 24 -174
68 -213 24 -22 19 -36 62 153 17 74 33 144 36 155 5 16 4 18 -7 8 -7 -7 -23
-13 -36 -13 -12 0 -27 -8 -33 -17 -10 -16 -11 -15 -7 5 4 16 -4 32 -26 56 -28
29 -97 74 -97 62z"/>
<path d="M910 587 c0 -12 33 -16 183 -21 100 -4 215 -9 255 -12 61 -5 72 -4
72 9 0 20 -44 24 -307 32 -173 5 -203 4 -203 -8z"/>
<path d="M915 538 c-2 -7 -18 -78 -35 -158 -17 -80 -33 -152 -36 -161 -3 -12
10 -26 48 -48 l53 -30 16 51 c14 44 17 48 22 27 4 -13 7 -40 7 -60 0 -42 6
-45 111 -56 l62 -6 -7 144 c-4 79 -8 144 -9 144 -1 1 -43 38 -93 83 -88 78
-129 99 -139 70z"/>
<path d="M1091 471 c40 -36 75 -67 79 -69 7 -3 164 118 158 123 -2 1 -72 5
-155 8 l-153 5 71 -67z"/>
<path d="M1410 502 c45 -56 57 -133 37 -237 -8 -44 -19 -89 -23 -99 -10 -27
12 -17 81 35 37 28 55 48 55 63 0 31 -14 48 -33 40 -14 -5 -17 0 -17 24 0 21
6 33 19 37 13 4 17 12 14 30 -3 15 -10 22 -19 18 -10 -4 -14 3 -14 26 0 21 5
31 15 31 10 0 15 10 15 30 0 34 -2 35 -30 18 -17 -11 -26 -10 -51 5 -17 9 -42
17 -55 17 l-25 0 31 -38z"/>
<path d="M1277 455 l-87 -66 0 -144 0 -145 46 0 c25 0 66 5 91 11 42 11 47 16
71 68 46 104 39 247 -16 319 l-18 23 -87 -66z"/>
</g>
</svg>
